REM DIRINDEX 1\2\4,1\2\5,1\2\6,1\3\7,1\3\8,1\3\9,1\3\10
REM DIRNAME folder01,folder02,folder03,folder04,folder05,folder06,folder07,folder08,folder09,folder10
TITLE ""
FILE "b_70.mp3" MP3
  TRACK 01 AUDIO
    TITLE "0:"
    INDEX 01 00:00:00
  TRACK 02 AUDIO
    TITLE "10:cjc058_5006"
    INDEX 01 00:00:13
  TRACK 03 AUDIO
    TITLE "0:"
    INDEX 01 00:03:04
  TRACK 04 AUDIO
    TITLE "7:cjc058_5007"
    INDEX 01 00:03:47
  TRACK 05 AUDIO
    TITLE "0:"
    INDEX 01 00:05:73
  TRACK 06 AUDIO
    TITLE "8:cjc058_5008"
    INDEX 01 00:06:26
  TRACK 07 AUDIO
    TITLE "0:"
    INDEX 01 00:08:17
  TRACK 08 AUDIO
    TITLE "9:cjc058_5009"
    INDEX 01 00:08:52
  TRACK 09 AUDIO
    TITLE "0:"
    INDEX 01 00:12:32
  TRACK 10 AUDIO
    TITLE "7:cjc058_5010"
    INDEX 01 00:13:35
  TRACK 11 AUDIO
    TITLE "0:"
    INDEX 01 00:15:11
  TRACK 12 AUDIO
    TITLE "8:cjc058_5011"
    INDEX 01 00:15:38
  TRACK 13 AUDIO
    TITLE "0:"
    INDEX 01 00:17:67
  TRACK 14 AUDIO
    TITLE "9:cjc058_5012"
    INDEX 01 00:18:29
  TRACK 15 AUDIO
    TITLE "0:"
    INDEX 01 00:22:52
  TRACK 16 AUDIO
    TITLE "7:cjc058_5013"
    INDEX 01 00:23:51
  TRACK 17 AUDIO
    TITLE "0:"
    INDEX 01 00:25:23
  TRACK 18 AUDIO
    TITLE "8:cjc058_5014"
    INDEX 01 00:25:48
  TRACK 19 AUDIO
    TITLE "0:"
    INDEX 01 00:28:31
  TRACK 20 AUDIO
    TITLE "9:cjc058_5015"
    INDEX 01 00:28:68
  TRACK 21 AUDIO
    TITLE "0:"
    INDEX 01 00:33:52
  TRACK 22 AUDIO
    TITLE "7:cjc058_5016"
    INDEX 01 00:34:55
  TRACK 23 AUDIO
    TITLE "0:"
    INDEX 01 00:36:05
  TRACK 24 AUDIO
    TITLE "8:cjc058_5017"
    INDEX 01 00:36:33
  TRACK 25 AUDIO
    TITLE "0:"
    INDEX 01 00:40:19
  TRACK 26 AUDIO
    TITLE "9:cjc058_5018"
    INDEX 01 00:40:60
  TRACK 27 AUDIO
    TITLE "0:"
    INDEX 01 00:43:39
  TRACK 28 AUDIO
    TITLE "7:cjc058_5019"
    INDEX 01 00:44:38
  TRACK 29 AUDIO
    TITLE "0:"
    INDEX 01 00:45:53
  TRACK 30 AUDIO
    TITLE "8:cjc058_5020"
    INDEX 01 00:46:04
  TRACK 31 AUDIO
    TITLE "0:"
    INDEX 01 00:47:64
  TRACK 32 AUDIO
    TITLE "9:cjc058_5021"
    INDEX 01 00:48:30
  TRACK 33 AUDIO
    TITLE "0:"
    INDEX 01 00:52:10
  TRACK 34 AUDIO
    TITLE "7:cjc058_5022"
    INDEX 01 00:53:11
  TRACK 35 AUDIO
    TITLE "0:"
    INDEX 01 00:55:51
  TRACK 36 AUDIO
    TITLE "8:cjc058_5023"
    INDEX 01 00:56:04
  TRACK 37 AUDIO
    TITLE "0:"
    INDEX 01 00:58:38
  TRACK 38 AUDIO
    TITLE "9:cjc058_5024"
    INDEX 01 00:59:02
  TRACK 39 AUDIO
    TITLE "0:"
    INDEX 01 01:03:39
  TRACK 40 AUDIO
    TITLE "7:cjc058_5025"
    INDEX 01 01:04:41
  TRACK 41 AUDIO
    TITLE "0:"
    INDEX 01 01:06:55
  TRACK 42 AUDIO
    TITLE "8:cjc058_5026"
    INDEX 01 01:07:10
  TRACK 43 AUDIO
    TITLE "0:"
    INDEX 01 01:11:13
  TRACK 44 AUDIO
    TITLE "9:cjc058_5027"
    INDEX 01 01:11:52
  TRACK 45 AUDIO
    TITLE "0:"
    INDEX 01 01:15:19
  TRACK 46 AUDIO
    TITLE "7:cjc058_5028"
    INDEX 01 01:16:26
  TRACK 47 AUDIO
    TITLE "0:"
    INDEX 01 01:17:67
  TRACK 48 AUDIO
    TITLE "8:cjc058_5029"
    INDEX 01 01:18:19
  TRACK 49 AUDIO
    TITLE "0:"
    INDEX 01 01:21:31
  TRACK 50 AUDIO
    TITLE "9:cjc058_5030"
    INDEX 01 01:21:72
  TRACK 51 AUDIO
    TITLE "0:"
    INDEX 01 01:25:70
  TRACK 52 AUDIO
    TITLE "7:cjc058_5031"
    INDEX 01 01:26:72
  TRACK 53 AUDIO
    TITLE "0:"
    INDEX 01 01:29:13
  TRACK 54 AUDIO
    TITLE "8:cjc058_5032"
    INDEX 01 01:29:41
  TRACK 55 AUDIO
    TITLE "0:"
    INDEX 01 01:33:40
  TRACK 56 AUDIO
    TITLE "9:cjc058_5033"
    INDEX 01 01:34:05
  TRACK 57 AUDIO
    TITLE "0:"
    INDEX 01 01:38:34
  TRACK 58 AUDIO
    TITLE "7:cjc058_5034"
    INDEX 01 01:39:39
  TRACK 59 AUDIO
    TITLE "0:"
    INDEX 01 01:41:40
  TRACK 60 AUDIO
    TITLE "8:cjc058_5035"
    INDEX 01 01:41:67
  TRACK 61 AUDIO
    TITLE "0:"
    INDEX 01 01:43:52
  TRACK 62 AUDIO
    TITLE "9:cjc058_5036"
    INDEX 01 01:44:19
  TRACK 63 AUDIO
    TITLE "0:"
    INDEX 01 01:49:55
  TRACK 64 AUDIO
    TITLE "7:cjc058_5037"
    INDEX 01 01:50:56
  TRACK 65 AUDIO
    TITLE "0:"
    INDEX 01 01:52:46
  TRACK 66 AUDIO
    TITLE "8:cjc058_5038"
    INDEX 01 01:52:69
  TRACK 67 AUDIO
    TITLE "0:"
    INDEX 01 01:54:74
  TRACK 68 AUDIO
    TITLE "9:cjc058_5039"
    INDEX 01 01:55:36
  TRACK 69 AUDIO
    TITLE "0:"
    INDEX 01 02:01:29
  TRACK 70 AUDIO
    TITLE "7:cjc058_5040"
    INDEX 01 02:02:26
  TRACK 71 AUDIO
    TITLE "0:"
    INDEX 01 02:04:21
  TRACK 72 AUDIO
    TITLE "8:cjc058_5041"
    INDEX 01 02:04:49
  TRACK 73 AUDIO
    TITLE "0:"
    INDEX 01 02:06:59
  TRACK 74 AUDIO
    TITLE "9:cjc058_5042"
    INDEX 01 02:07:20
  TRACK 75 AUDIO
    TITLE "0:"
    INDEX 01 02:10:73
  TRACK 76 AUDIO
    TITLE "7:cjc058_5043"
    INDEX 01 02:12:01
  TRACK 77 AUDIO
    TITLE "0:"
    INDEX 01 02:13:46
  TRACK 78 AUDIO
    TITLE "8:cjc058_5044"
    INDEX 01 02:14:00
  TRACK 79 AUDIO
    TITLE "0:"
    INDEX 01 02:16:50
  TRACK 80 AUDIO
    TITLE "9:cjc058_5045"
    INDEX 01 02:17:12
  TRACK 81 AUDIO
    TITLE "0:"
    INDEX 01 02:21:22
  TRACK 82 AUDIO
    TITLE "7:cjc058_5046"
    INDEX 01 02:22:21
  TRACK 83 AUDIO
    TITLE "0:"
    INDEX 01 02:23:52
  TRACK 84 AUDIO
    TITLE "8:cjc058_5047"
    INDEX 01 02:24:06
  TRACK 85 AUDIO
    TITLE "0:"
    INDEX 01 02:26:41
  TRACK 86 AUDIO
    TITLE "9:cjc058_5048"
    INDEX 01 02:27:05
  TRACK 87 AUDIO
    TITLE "0:"
    INDEX 01 02:29:64
  TRACK 88 AUDIO
    TITLE "7:cjc058_5049"
    INDEX 01 02:30:68
  TRACK 89 AUDIO
    TITLE "0:"
    INDEX 01 02:32:35
  TRACK 90 AUDIO
    TITLE "8:cjc058_5050"
    INDEX 01 02:32:63
  TRACK 91 AUDIO
    TITLE "0:"
    INDEX 01 02:38:12
  TRACK 92 AUDIO
    TITLE "9:cjc058_5051"
    INDEX 01 02:38:54
  TRACK 93 AUDIO
    TITLE "0:"
    INDEX 01 02:42:16
  TRACK 94 AUDIO
    TITLE "7:cjc058_5052"
    INDEX 01 02:43:19
  TRACK 95 AUDIO
    TITLE "0:"
    INDEX 01 02:44:56
  TRACK 96 AUDIO
    TITLE "8:cjc058_5053"
    INDEX 01 02:45:09
  TRACK 97 AUDIO
    TITLE "0:"
    INDEX 01 02:46:67
  TRACK 98 AUDIO
    TITLE "9:cjc058_5054"
    INDEX 01 02:47:33
  TRACK 99 AUDIO
    TITLE "0:"
    INDEX 01 02:50:43
  TRACK 100 AUDIO
    TITLE "7:cjc058_5055"
    INDEX 01 02:51:44
  TRACK 101 AUDIO
    TITLE "0:"
    INDEX 01 02:53:04
  TRACK 102 AUDIO
    TITLE "8:cjc058_5056"
    INDEX 01 02:53:28
  TRACK 103 AUDIO
    TITLE "0:"
    INDEX 01 02:55:50
  TRACK 104 AUDIO
    TITLE "9:cjc058_5057"
    INDEX 01 02:56:14
  TRACK 105 AUDIO
    TITLE "0:"
    INDEX 01 02:59:73
  TRACK 106 AUDIO
    TITLE "7:cjc058_5058"
    INDEX 01 03:01:02
  TRACK 107 AUDIO
    TITLE "0:"
    INDEX 01 03:03:16
  TRACK 108 AUDIO
    TITLE "8:cjc058_5059"
    INDEX 01 03:03:44
  TRACK 109 AUDIO
    TITLE "0:"
    INDEX 01 03:05:37
  TRACK 110 AUDIO
    TITLE "9:cjc058_5060"
    INDEX 01 03:06:01
  TRACK 111 AUDIO
    TITLE "0:"
    INDEX 01 03:10:61
  TRACK 112 AUDIO
    TITLE "7:cjc058_5061"
    INDEX 01 03:11:61
  TRACK 113 AUDIO
    TITLE "0:"
    INDEX 01 03:13:46
  TRACK 114 AUDIO
    TITLE "8:cjc058_5062"
    INDEX 01 03:13:73
  TRACK 115 AUDIO
    TITLE "0:"
    INDEX 01 03:16:13
  TRACK 116 AUDIO
    TITLE "9:cjc058_5063"
    INDEX 01 03:16:50
  TRACK 117 AUDIO
    TITLE "0:"
    INDEX 01 03:18:49
  TRACK 118 AUDIO
    TITLE "7:cjc058_5064"
    INDEX 01 03:19:52
  TRACK 119 AUDIO
    TITLE "0:"
    INDEX 01 03:22:35
  TRACK 120 AUDIO
    TITLE "8:cjc058_5065"
    INDEX 01 03:22:63
  TRACK 121 AUDIO
    TITLE "0:"
    INDEX 01 03:24:63
  TRACK 122 AUDIO
    TITLE "9:cjc058_5066"
    INDEX 01 03:25:26
  TRACK 123 AUDIO
    TITLE "0:"
    INDEX 01 03:30:03
  TRACK 124 AUDIO
    TITLE "7:cjc058_5067"
    INDEX 01 03:31:07
  TRACK 125 AUDIO
    TITLE "0:"
    INDEX 01 03:32:47
  TRACK 126 AUDIO
    TITLE "8:cjc058_5068"
    INDEX 01 03:33:00
  TRACK 127 AUDIO
    TITLE "0:"
    INDEX 01 03:35:48
  TRACK 128 AUDIO
    TITLE "9:cjc058_5069"
    INDEX 01 03:36:12
  TRACK 129 AUDIO
    TITLE "0:"
    INDEX 01 03:38:71
  TRACK 130 AUDIO
    TITLE "7:cjc058_5070"
    INDEX 01 03:40:00
  TRACK 131 AUDIO
    TITLE "0:"
    INDEX 01 03:41:52
  TRACK 132 AUDIO
    TITLE "8:cjc058_5071"
    INDEX 01 03:42:06
  TRACK 133 AUDIO
    TITLE "0:"
    INDEX 01 03:43:61
  TRACK 134 AUDIO
    TITLE "9:cjc058_5072"
    INDEX 01 03:44:25
  TRACK 135 AUDIO
    TITLE "0:"
    INDEX 01 03:47:68
  TRACK 136 AUDIO
    TITLE "7:cjc058_5073"
    INDEX 01 03:48:68
  TRACK 137 AUDIO
    TITLE "0:"
    INDEX 01 03:50:14
  TRACK 138 AUDIO
    TITLE "8:cjc058_5074"
    INDEX 01 03:50:41
  TRACK 139 AUDIO
    TITLE "0:"
    INDEX 01 03:53:40
  TRACK 140 AUDIO
    TITLE "9:cjc058_5075"
    INDEX 01 03:54:02
  TRACK 141 AUDIO
    TITLE "0:"
    INDEX 01 03:58:70
  TRACK 142 AUDIO
    TITLE "7:cjc058_5076"
    INDEX 01 03:59:72
  TRACK 143 AUDIO
    TITLE "0:"
    INDEX 01 04:02:13
  TRACK 144 AUDIO
    TITLE "8:cjc058_5077"
    INDEX 01 04:02:41
  TRACK 145 AUDIO
    TITLE "0:"
    INDEX 01 04:07:28
  TRACK 146 AUDIO
    TITLE "9:cjc058_5078"
    INDEX 01 04:07:67
  TRACK 147 AUDIO
    TITLE "0:"
    INDEX 01 04:12:68
  TRACK 148 AUDIO
    TITLE "7:cjc058_5079"
    INDEX 01 04:13:66
  TRACK 149 AUDIO
    TITLE "0:"
    INDEX 01 04:15:69
  TRACK 150 AUDIO
    TITLE "8:cjc058_5080"
    INDEX 01 04:16:21
  TRACK 151 AUDIO
    TITLE "0:"
    INDEX 01 04:18:67
  TRACK 152 AUDIO
    TITLE "9:cjc058_5081"
    INDEX 01 04:19:33
  TRACK 153 AUDIO
    TITLE "0:"
    INDEX 01 04:27:42
  TRACK 154 AUDIO
    TITLE "7:cjc058_5082"
    INDEX 01 04:28:46
  TRACK 155 AUDIO
    TITLE "0:"
    INDEX 01 04:30:74
  TRACK 156 AUDIO
    TITLE "8:cjc058_5083"
    INDEX 01 04:31:25
  TRACK 157 AUDIO
    TITLE "0:"
    INDEX 01 04:34:07
  TRACK 158 AUDIO
    TITLE "9:cjc058_5084"
    INDEX 01 04:34:44
  TRACK 159 AUDIO
    TITLE "0:"
    INDEX 01 04:39:40
  TRACK 160 AUDIO
    TITLE "7:cjc058_5085"
    INDEX 01 04:40:41
  TRACK 161 AUDIO
    TITLE "0:"
    INDEX 01 04:42:01
  TRACK 162 AUDIO
    TITLE "8:cjc058_5086"
    INDEX 01 04:42:30
  TRACK 163 AUDIO
    TITLE "0:"
    INDEX 01 04:46:14
  TRACK 164 AUDIO
    TITLE "9:cjc058_5087"
    INDEX 01 04:46:48
  TRACK 165 AUDIO
    TITLE "0:"
    INDEX 01 04:49:34
  TRACK 166 AUDIO
    TITLE "7:cjc058_5088"
    INDEX 01 04:50:38
  TRACK 167 AUDIO
    TITLE "0:"
    INDEX 01 04:52:42
  TRACK 168 AUDIO
    TITLE "8:cjc058_5089"
    INDEX 01 04:52:70
  TRACK 169 AUDIO
    TITLE "0:"
    INDEX 01 04:55:64
  TRACK 170 AUDIO
    TITLE "9:cjc058_5090"
    INDEX 01 04:56:28
  TRACK 171 AUDIO
    TITLE "0:"
    INDEX 01 05:01:30
  TRACK 172 AUDIO
    TITLE "7:cjc058_5091"
    INDEX 01 05:02:31
  TRACK 173 AUDIO
    TITLE "0:"
    INDEX 01 05:03:72
  TRACK 174 AUDIO
    TITLE "8:cjc058_5092"
    INDEX 01 05:04:24
  TRACK 175 AUDIO
    TITLE "0:"
    INDEX 01 05:06:29
  TRACK 176 AUDIO
    TITLE "9:cjc058_5093"
    INDEX 01 05:06:64
  TRACK 177 AUDIO
    TITLE "0:"
    INDEX 01 05:10:13
  TRACK 178 AUDIO
    TITLE "7:cjc058_5094"
    INDEX 01 05:11:14
  TRACK 179 AUDIO
    TITLE "0:"
    INDEX 01 05:12:74
  TRACK 180 AUDIO
    TITLE "8:cjc058_5095"
    INDEX 01 05:13:27
  TRACK 181 AUDIO
    TITLE "0:"
    INDEX 01 05:15:61
  TRACK 182 AUDIO
    TITLE "9:cjc058_5096"
    INDEX 01 05:16:23
  TRACK 183 AUDIO
    TITLE "0:"
    INDEX 01 05:21:01
